<svg xmlns="http://www.w3.org/2000/svg" width="24" height="24" viewBox="0 0 24 24" fill="none">
  <defs>
    <radialGradient id="m" cx="0" cy="0" r="1" gradientUnits="userSpaceOnUse" gradientTransform="translate(8 6) rotate(38) scale(19)">
      <stop stop-color="#E8FBFF"/>
      <stop offset="0.55" stop-color="#6AD8FF"/>
      <stop offset="1" stop-color="#2C4DE2"/>
    </radialGradient>
  </defs>
  <path d="M12 2.2c3.8 4.8 6.2 8.1 6.2 11.2A6.2 6.2 0 0 1 12 19.6a6.2 6.2 0 0 1-6.2-6.2c0-3.1 2.4-6.4 6.2-11.2z" fill="url(#m)" stroke="#C7F2FF" stroke-width="1.1"/>
  <path d="M10.1 14.7c1.9 0 3.5-1.2 4.1-3 .2-.5.9-.5 1.1 0a5.4 5.4 0 0 1-5.2 4.1c-1 0-1-.9 0-1.1z" fill="#DDFBFF"/>
</svg>
